<svg width="128" height="128" viewBox="0 0 128 128" fill="none" xmlns="http://www.w3.org/2000/svg">
<rect width="128" height="128" fill="white"/>
<mask id="path-1-inside-1" fill="white">
<path d="M39 42H89C91.2091 42 93 43.7909 93 46V52.5V61.5V83C93 85.2091 91.2091 87 89 87H39C36.7909 87 35 85.2091 35 83V61.5V52.5V46C35 43.7909 36.7909 42 39 42Z"/>
</mask>
<path d="M35 51C34.1716 51 33.5 51.6716 33.5 52.5C33.5 53.3284 34.1716 54 35 54V51ZM35 60C34.1716 60 33.5 60.6716 33.5 61.5C33.5 62.3284 34.1716 63 35 63V60ZM93 51H35V54H93V51ZM93 60H35V63H93V60ZM39 45H89V39H39V45ZM89 84H39V90H89V84ZM90 46V52.5H96V46H90ZM90 52.5V61.5H96V52.5H90ZM90 61.5V83H96V61.5H90ZM38 83V61.5H32V83H38ZM38 61.5V52.5H32V61.5H38ZM38 52.5V46H32V52.5H38ZM89 90C92.866 90 96 86.866 96 83H90C90 83.5523 89.5523 84 89 84V90ZM89 45C89.5523 45 90 45.4477 90 46H96C96 42.134 92.866 39 89 39V45ZM39 39C35.134 39 32 42.134 32 46H38C38 45.4477 38.4477 45 39 45V39ZM39 84C38.4477 84 38 83.5523 38 83H32C32 86.866 35.134 90 39 90V84Z" fill="#333333" mask="url(#path-1-inside-1)"/>
<circle cx="69.5" cy="74.5" r="5" stroke="#333333" stroke-width="3"/>
<circle cx="79.5" cy="74.5" r="5" stroke="#333333" stroke-width="3"/>
</svg>
