<svg width="128" height="128" viewBox="0 0 128 128" fill="none" xmlns="http://www.w3.org/2000/svg">
<rect width="128" height="128" fill="white"/>
<mask id="path-1-inside-1" fill="white">
<path d="M85 88L85 40C85 37.7909 83.2091 36 81 36L47 36C44.7909 36 43 37.7909 43 40L43 88C43 90.2091 44.7909 92 47 92L81 92C83.2091 92 85 90.2091 85 88Z"/>
</mask>
<path d="M55 47.5C54.1716 47.5 53.5 48.1716 53.5 49C53.5 49.8284 54.1716 50.5 55 50.5L55 47.5ZM73 50.5C73.8284 50.5 74.5 49.8284 74.5 49C74.5 48.1716 73.8284 47.5 73 47.5L73 50.5ZM55 57.5C54.1716 57.5 53.5 58.1716 53.5 59C53.5 59.8284 54.1716 60.5 55 60.5L55 57.5ZM73 60.5C73.8284 60.5 74.5 59.8284 74.5 59C74.5 58.1716 73.8284 57.5 73 57.5L73 60.5ZM55 50.5L73 50.5L73 47.5L55 47.5L55 50.5ZM55 60.5L73 60.5L73 57.5L55 57.5L55 60.5ZM82 40L82 88L88 88L88 40L82 40ZM46 88L46 40L40 40L40 88L46 88ZM47 39L81 39L81 33L47 33L47 39ZM81 89L47 89L47 95L81 95L81 89ZM40 88C40 91.866 43.134 95 47 95L47 89C46.4477 89 46 88.5523 46 88L40 88ZM82 88C82 88.5523 81.5523 89 81 89L81 95C84.866 95 88 91.866 88 88L82 88ZM88 40C88 36.134 84.866 33 81 33L81 39C81.5523 39 82 39.4477 82 40L88 40ZM46 40C46 39.4477 46.4477 39 47 39L47 33C43.134 33 40 36.134 40 40L46 40Z" fill="#333333" mask="url(#path-1-inside-1)"/>
</svg>
