<svg width="128" height="128" viewBox="0 0 128 128" fill="none" xmlns="http://www.w3.org/2000/svg">
<rect width="128" height="128" fill="white"/>
<mask id="path-1-inside-1" fill="white">
<path d="M87 50L87 77C87 79.2091 85.2091 81 83 81L45 81C42.7909 81 41 79.2091 41 77L41 50L41 49C41 46.7909 42.7909 45 45 45L83 45C85.2091 45 87 46.7909 87 49L87 50Z"/>
</mask>
<path d="M64 62.5L63.2837 63.8179L64 64.2072L64.7163 63.8179L64 62.5ZM40.2837 51.3179L63.2837 63.8179L64.7163 61.1821L41.7163 48.6821L40.2837 51.3179ZM64.7163 63.8179L87.7163 51.3179L86.2837 48.6821L63.2837 61.1821L64.7163 63.8179ZM87 50L84 50L84 50L87 50ZM87 77L90 77L87 77ZM87 49L84 49L87 49ZM84 50L84 77L90 77L90 50L84 50ZM44 77L44 50L38 50L38 77L44 77ZM83 78L45 78L45 84L83 84L83 78ZM84 49L84 50L90 50L90 49L84 49ZM44 50L44 49L38 49L38 50L44 50ZM45 48L83 48L83 42L45 42L45 48ZM44 49C44 48.4477 44.4477 48 45 48L45 42C41.134 42 38 45.134 38 49L44 49ZM90 49C90 45.134 86.866 42 83 42L83 48C83.5523 48 84 48.4477 84 49L90 49ZM38 77C38 80.866 41.134 84 45 84L45 78C44.4477 78 44 77.5523 44 77L38 77ZM84 77C84 77.5523 83.5523 78 83 78L83 84C86.866 84 90 80.866 90 77L84 77Z" fill="#333333" mask="url(#path-1-inside-1)"/>
</svg>
