<svg width="641" height="801" viewBox="0 0 641 801" fill="none" xmlns="http://www.w3.org/2000/svg">
<path d="M41 0V800" stroke="#F2F2F2"/>
<path d="M81 0V800" stroke="#F2F2F2"/>
<path d="M121 0V800" stroke="#F2F2F2"/>
<path d="M201 0V800" stroke="#F2F2F2"/>
<path d="M241 0V800" stroke="#F2F2F2"/>
<path d="M281 0V800" stroke="#F2F2F2"/>
<path d="M361 0V800" stroke="#F2F2F2"/>
<path d="M401 0V800" stroke="#F2F2F2"/>
<path d="M441 0V800" stroke="#F2F2F2"/>
<path d="M521 0V800" stroke="#F2F2F2"/>
<path d="M561 0V800" stroke="#F2F2F2"/>
<path d="M601 0V800" stroke="#F2F2F2"/>
<path d="M1 0V800" stroke="#E0E0E0"/>
<path d="M161 0V800" stroke="#E0E0E0"/>
<path d="M321 0V800" stroke="#E0E0E0"/>
<path d="M481 0V800" stroke="#E0E0E0"/>
<path d="M641 40L0.999995 40" stroke="#F2F2F2"/>
<path d="M641 120L0.999995 120" stroke="#F2F2F2"/>
<path d="M641 160L0.999995 160" stroke="#F2F2F2"/>
<path d="M641 200L0.999995 200" stroke="#F2F2F2"/>
<path d="M641 280L0.999995 280" stroke="#F2F2F2"/>
<path d="M641 320L0.999995 320" stroke="#F2F2F2"/>
<path d="M641 360L0.999995 360" stroke="#F2F2F2"/>
<path d="M641 440L0.999995 440" stroke="#F2F2F2"/>
<path d="M641 480L0.999995 480" stroke="#F2F2F2"/>
<path d="M641 520L0.999995 520" stroke="#F2F2F2"/>
<path d="M641 600L0.999995 600" stroke="#F2F2F2"/>
<path d="M641 640L0.999995 640" stroke="#F2F2F2"/>
<path d="M641 680L0.999995 680" stroke="#F2F2F2"/>
<path d="M641 760L0.999995 760" stroke="#F2F2F2"/>
<path d="M641 800L0.999995 800" stroke="#F2F2F2"/>
<path d="M641 80L0.999995 80" stroke="#E0E0E0"/>
<path d="M641 240L0.999995 240" stroke="#E0E0E0"/>
<path d="M641 400L0.999995 400" stroke="#E0E0E0"/>
<path d="M641 560L0.999995 560" stroke="#E0E0E0"/>
<path d="M641 720L0.999995 720" stroke="#E0E0E0"/>
</svg>
