<svg width="128" height="128" viewBox="0 0 128 128" fill="none" xmlns="http://www.w3.org/2000/svg">
<rect width="128" height="128" fill="white"/>
<mask id="path-1-inside-1" fill="white">
<path d="M84 88L44 88C41.7909 88 40 86.2091 40 84L40 75.5L40 44C40 41.7909 41.7909 40 44 40L84 40C86.2091 40 88 41.7909 88 44L88 79.7857L88 84C88 86.2091 86.2091 88 84 88Z"/>
</mask>
<path d="M50.1788 65.3212L51.2394 66.3819L50.1788 65.3212ZM57.2498 65.3212L58.3105 64.2606L57.2498 65.3212ZM66.0359 74.1073L64.9752 75.168L66.0359 74.1073ZM73.107 74.1073L74.1676 75.168L73.107 74.1073ZM74.1787 73.0355L75.2394 74.0962L74.1787 73.0355ZM81.2498 73.0355L80.1892 74.0962L80.1892 74.0962L81.2498 73.0355ZM41.0607 76.5607L51.2394 66.3819L49.1181 64.2606L38.9393 74.4393L41.0607 76.5607ZM56.1892 66.3819L64.9752 75.168L67.0965 73.0467L58.3105 64.2606L56.1892 66.3819ZM74.1676 75.168L75.2394 74.0962L73.1181 71.9749L72.0463 73.0467L74.1676 75.168ZM80.1892 74.0962L86.9393 80.8464L89.0607 78.7251L82.3105 71.9749L80.1892 74.0962ZM75.2394 74.0962C76.6062 72.7294 78.8223 72.7294 80.1892 74.0962L82.3105 71.9749C79.7721 69.4365 75.6565 69.4365 73.1181 71.9749L75.2394 74.0962ZM64.9752 75.168C67.5136 77.7064 71.6292 77.7064 74.1676 75.168L72.0463 73.0467C70.6795 74.4135 68.4634 74.4135 67.0965 73.0467L64.9752 75.168ZM51.2394 66.3819C52.6062 65.0151 54.8223 65.0151 56.1892 66.3819L58.3105 64.2606C55.7721 61.7222 51.6565 61.7222 49.1181 64.2606L51.2394 66.3819ZM84 85L44 85L44 91L84 91L84 85ZM44 43L84 43L84 37L44 37L44 43ZM43 84L43 75.5L37 75.5L37 84L43 84ZM43 75.5L43 44L37 44L37 75.5L43 75.5ZM85 44L85 79.7857L91 79.7857L91 44L85 44ZM85 79.7857L85 84L91 84L91 79.7857L85 79.7857ZM44 37C40.134 37 37 40.134 37 44L43 44C43 43.4477 43.4477 43 44 43L44 37ZM44 85C43.4477 85 43 84.5523 43 84L37 84C37 87.866 40.134 91 44 91L44 85ZM84 91C87.866 91 91 87.866 91 84L85 84C85 84.5523 84.5523 85 84 85L84 91ZM84 43C84.5523 43 85 43.4477 85 44L91 44C91 40.134 87.866 37 84 37L84 43Z" fill="#333333" mask="url(#path-1-inside-1)"/>
<circle cx="69.5" cy="55.5" r="5" stroke="#333333" stroke-width="3"/>
</svg>
