<svg width="128" height="128" viewBox="0 0 128 128" fill="none" xmlns="http://www.w3.org/2000/svg">
<rect width="128" height="128" fill="white"/>
<path d="M59.5 56C59.5 55.1716 60.1716 54.5 61 54.5C61.8284 54.5 62.5 55.1716 62.5 56H59.5ZM71.5 39C71.5 38.1716 72.1716 37.5 73 37.5C73.8284 37.5 74.5 38.1716 74.5 39H71.5ZM62.5 56V77H59.5V56H62.5ZM65.5 77V45H68.5V77H65.5ZM56.5 45V81H53.5V45H56.5ZM63 87.5H65V90.5H63V87.5ZM71.5 81V39H74.5V81H71.5ZM65 87.5C68.5899 87.5 71.5 84.5899 71.5 81H74.5C74.5 86.2467 70.2467 90.5 65 90.5V87.5ZM56.5 81C56.5 84.5898 59.4101 87.5 63 87.5V90.5C57.7533 90.5 53.5 86.2467 53.5 81H56.5ZM61 40.5C58.5147 40.5 56.5 42.5147 56.5 45H53.5C53.5 40.8579 56.8579 37.5 61 37.5V40.5ZM65.5 45C65.5 42.5147 63.4853 40.5 61 40.5V37.5C65.1421 37.5 68.5 40.8579 68.5 45H65.5ZM64 78.5C64.8284 78.5 65.5 77.8284 65.5 77H68.5C68.5 79.4853 66.4853 81.5 64 81.5V78.5ZM62.5 77C62.5 77.8284 63.1716 78.5 64 78.5V81.5C61.5147 81.5 59.5 79.4853 59.5 77H62.5Z" fill="black"/>
</svg>
