<svg width="128" height="128" viewBox="0 0 128 128" fill="none" xmlns="http://www.w3.org/2000/svg">
<rect width="128" height="128" fill="white"/>
<mask id="path-1-inside-1" fill="white">
<path d="M29.8751 54.1235L28.3547 72.6732C28.1637 75.0034 30.0033 77 32.3413 77H96C98.2091 77 100 75.2091 100 73V70.3984C100 68.922 99.1867 67.5656 97.8844 66.8701L74.7234 54.5L67.5 50.642L58.3029 45.7299C56.9035 44.9825 55.207 45.1519 53.8875 46.0329C49.0098 49.2896 43.0584 51.3647 37.2524 49.9554C34.114 49.1937 30.139 50.9048 29.8751 54.1235Z"/>
</mask>
<path d="M61.2593 57.1569C60.7937 57.8421 60.9717 58.775 61.6569 59.2407C62.3421 59.7063 63.275 59.5283 63.7407 58.8431L61.2593 57.1569ZM68.7566 60.661C68.2932 61.3477 68.4743 62.28 69.161 62.7434C69.8477 63.2068 70.78 63.0257 71.2434 62.339L68.7566 60.661ZM66.2593 49.799L61.2593 57.1569L63.7407 58.8431L68.7407 51.4851L66.2593 49.799ZM73.48 53.661L68.7566 60.661L71.2434 62.339L75.9668 55.339L73.48 53.661ZM28.3547 72.6732L31.3446 72.9183L28.3547 72.6732ZM29.8751 54.1235L26.8851 53.8785L29.8751 54.1235ZM37.2524 49.9554L36.5448 52.8708L37.2524 49.9554ZM53.8875 46.0329L52.2217 43.5379V43.5379L53.8875 46.0329ZM58.3029 45.7299L59.7162 43.0837L59.7162 43.0837L58.3029 45.7299ZM67.5 50.642L66.0867 53.2883V53.2883L67.5 50.642ZM74.7234 54.5L76.1367 51.8538L74.7234 54.5ZM97.8844 66.8701L96.4711 69.5163V69.5163L97.8844 66.8701ZM31.3446 72.9183L32.8651 54.3686L26.8851 53.8785L25.3647 72.4281L31.3446 72.9183ZM36.5448 52.8708C43.4888 54.5562 50.3132 52.0267 55.5534 48.5279L52.2217 43.5379C47.7065 46.5526 42.628 48.1731 37.96 47.0401L36.5448 52.8708ZM96 74H32.3413V80H96V74ZM97 70.3984V73H103V70.3984H97ZM56.8895 48.3762L66.0867 53.2883L68.9133 47.9958L59.7162 43.0837L56.8895 48.3762ZM66.0867 53.2883L73.3101 57.1462L76.1367 51.8538L68.9133 47.9958L66.0867 53.2883ZM73.3101 57.1462L96.4711 69.5163L99.2978 64.2239L76.1367 51.8538L73.3101 57.1462ZM96 80C99.866 80 103 76.866 103 73H97C97 73.5523 96.5523 74 96 74V80ZM103 70.3984C103 67.8147 101.577 65.4411 99.2978 64.2239L96.4711 69.5163C96.7967 69.6902 97 70.0293 97 70.3984H103ZM55.5534 48.5279C56.0641 48.1869 56.5786 48.2101 56.8895 48.3762L59.7162 43.0837C57.2284 41.755 54.3498 42.117 52.2217 43.5379L55.5534 48.5279ZM32.8651 54.3686C32.8899 54.0658 33.0868 53.614 33.8654 53.2107C34.665 52.7966 35.7039 52.6667 36.5448 52.8708L37.96 47.0401C35.6625 46.4824 33.1446 46.8271 31.1062 47.8828C29.0467 48.9494 27.1242 50.9626 26.8851 53.8785L32.8651 54.3686ZM25.3647 72.4281C25.0304 76.506 28.2498 80 32.3413 80V74C31.7568 74 31.2969 73.5009 31.3446 72.9183L25.3647 72.4281Z" fill="#333333" mask="url(#path-1-inside-1)"/>
</svg>
