<svg width="128" height="128" viewBox="0 0 128 128" fill="none" xmlns="http://www.w3.org/2000/svg">
<rect width="128" height="128" fill="white"/>
<path d="M56.0636 50.9089L64 36.1783L71.9364 50.9089C72.277 51.5412 72.8847 51.9919 73.5973 52.127L89.9249 55.222L78.5015 67.4527C78.0104 67.9785 77.7823 68.6953 77.8732 69.4047L80.01 86.0742L65.0326 78.8775C64.3796 78.5637 63.6203 78.5637 62.9673 78.8775L47.99 86.0742L50.1268 69.4047C50.2178 68.6953 49.9896 67.9785 49.4985 67.4527L38.0751 55.222L54.4027 52.127C55.1153 51.9919 55.723 51.5412 56.0636 50.9089ZM90.6588 54.4362L90.658 54.4371L90.6588 54.4362Z" stroke="#333333" stroke-width="3"/>
<path d="M21.3674 72.6624C21.2024 71.8506 21.7268 71.0588 22.5386 70.8938L28.3014 69.7228C29.1132 69.5579 29.9051 70.0823 30.0701 70.8941C30.235 71.706 29.7106 72.4978 28.8988 72.6628L23.136 73.8337C22.3242 73.9987 21.5323 73.4743 21.3674 72.6624Z" fill="#333333"/>
<path d="M97.9298 57.1056C97.7649 56.2937 98.2893 55.5019 99.1011 55.3369L104.864 54.166C105.676 54.001 106.468 54.5254 106.633 55.3373C106.797 56.1491 106.273 56.9409 105.461 57.1059L99.6985 58.2769C98.8866 58.4418 98.0948 57.9174 97.9298 57.1056Z" fill="#333333"/>
<path d="M77.8143 22.7477C78.5998 23.0108 79.0234 23.8608 78.7603 24.6464L76.893 30.2226C76.6299 31.0081 75.7799 31.4317 74.9943 31.1686C74.2088 30.9056 73.7852 30.0555 74.0483 29.2699L75.9156 23.6938C76.1786 22.9082 77.0287 22.4847 77.8143 22.7477Z" fill="#333333"/>
<path d="M53.0057 96.8312C53.7912 97.0942 54.2148 97.9443 53.9517 98.7299L52.0844 104.306C51.8214 105.092 50.9713 105.515 50.1857 105.252C49.4002 104.989 48.9766 104.139 49.2397 103.353L51.107 97.7772C51.3701 96.9917 52.2201 96.5681 53.0057 96.8312Z" fill="#333333"/>
<path d="M37.299 31.5403C36.7502 30.9197 35.8023 30.8615 35.1817 31.4103C34.5611 31.9591 34.5029 32.907 35.0517 33.5276L38.9471 37.9329C39.4959 38.5535 40.4439 38.6117 41.0644 38.0629C41.685 37.5141 41.7433 36.5662 41.1945 35.9456L37.299 31.5403Z" fill="#333333"/>
<path d="M89.0529 90.0669C88.5041 89.4463 87.5561 89.3881 86.9356 89.9369C86.315 90.4857 86.2568 91.4336 86.8055 92.0542L90.701 96.4595C91.2497 97.0801 92.1977 97.1383 92.8183 96.5895C93.4389 96.0407 93.4971 95.0928 92.9483 94.4722L89.0529 90.0669Z" fill="#333333"/>
</svg>
