<svg width="128" height="128" viewBox="0 0 128 128" fill="none" xmlns="http://www.w3.org/2000/svg">
<rect width="128" height="128" fill="white"/>
<mask id="path-1-inside-1" fill="white">
<path d="M92 46V51.5C92 53.433 90.433 55 88.5 55V69V83C88.5 85.2091 86.7091 87 84.5 87H64H43.5C41.2909 87 39.5 85.2091 39.5 83V69V55C37.567 55 36 53.433 36 51.5V46C36 43.7909 37.7838 42 39.993 42H64H88.007C90.2162 42 92 43.7909 92 46Z"/>
</mask>
<path d="M39.5 53.5V52H38V53.5H39.5ZM88.5 53.5H90V52H88.5V53.5ZM41 55V53.5H38V55H41ZM87 53.5V55H90V53.5H87ZM39.5 55H64V52H39.5V55ZM64 55H88.5V52H64V55ZM62.5 53.5V69H65.5V53.5H62.5ZM62.5 69V87H65.5V69H62.5ZM39.5 70.5H64V67.5H39.5V70.5ZM64 70.5H88.5V67.5H64V70.5ZM39.5 55H42.5V52H39.5V55ZM88.5 55V52H85.5V55H88.5ZM89 46V51.5H95V46H89ZM39 51.5V46H33V51.5H39ZM84.5 84H64V90H84.5V84ZM64 84H43.5V90H64V84ZM39.993 45H64V39H39.993V45ZM64 45H88.007V39H64V45ZM42.5 83V69H36.5V83H42.5ZM42.5 69V55H36.5V69H42.5ZM85.5 55V69H91.5V55H85.5ZM85.5 69V83H91.5V69H85.5ZM39.5 52C39.2239 52 39 51.7761 39 51.5H33C33 55.0899 35.9101 58 39.5 58V52ZM89 51.5C89 51.7761 88.7761 52 88.5 52V58C92.0898 58 95 55.0899 95 51.5H89ZM84.5 90C88.366 90 91.5 86.866 91.5 83H85.5C85.5 83.5523 85.0523 84 84.5 84V90ZM95 46C95 42.1409 91.8799 39 88.007 39V45C88.5524 45 89 45.4408 89 46H95ZM39 46C39 45.4408 39.4476 45 39.993 45V39C36.1201 39 33 42.1409 33 46H39ZM43.5 84C42.9477 84 42.5 83.5523 42.5 83H36.5C36.5 86.866 39.634 90 43.5 90V84Z" fill="#333333" mask="url(#path-1-inside-1)"/>
</svg>
