<svg width="128" height="128" viewBox="0 0 128 128" fill="none" xmlns="http://www.w3.org/2000/svg">
<rect width="128" height="128" fill="white"/>
<circle cx="64" cy="64" r="22.5" stroke="#333333" stroke-width="3"/>
<path d="M64 26C64.7236 26 65.3102 26.5866 65.3102 27.3102V32.4468C65.3102 33.1704 64.7236 33.757 64 33.757C63.2764 33.757 62.6898 33.1704 62.6898 32.4468V27.3102C62.6898 26.5866 63.2764 26 64 26Z" fill="#333333"/>
<path d="M26 64C26 63.2764 26.5866 62.6898 27.3102 62.6898H32.4468C33.1704 62.6898 33.757 63.2764 33.757 64C33.757 64.7236 33.1704 65.3102 32.4468 65.3102H27.3102C26.5866 65.3102 26 64.7236 26 64Z" fill="#333333"/>
<path d="M94.243 64C94.243 63.2764 94.8296 62.6898 95.5532 62.6898H100.69C101.413 62.6898 102 63.2764 102 64C102 64.7236 101.413 65.3102 100.69 65.3102H95.5532C94.8296 65.3102 94.243 64.7236 94.243 64Z" fill="#333333"/>
<path d="M64 94.243C64.7236 94.243 65.3102 94.8296 65.3102 95.5532V100.69C65.3102 101.413 64.7236 102 64 102C63.2764 102 62.6898 101.413 62.6898 100.69V95.5532C62.6898 94.8296 63.2764 94.243 64 94.243Z" fill="#333333"/>
<path d="M83.0001 31.0911C83.6267 31.4529 83.8414 32.2542 83.4796 32.8809L80.9113 37.3293C80.5495 37.956 79.7482 38.1707 79.1215 37.8089C78.4949 37.4471 78.2801 36.6457 78.642 36.0191L81.2102 31.5707C81.5721 30.944 82.3734 30.7293 83.0001 31.0911Z" fill="#333333"/>
<path d="M31.0911 45.0001C31.4529 44.3734 32.2542 44.1587 32.8809 44.5205L37.3293 47.0888C37.956 47.4506 38.1707 48.2519 37.8089 48.8786C37.4471 49.5052 36.6457 49.72 36.0191 49.3581L31.5707 46.7899C30.944 46.4281 30.7293 45.6267 31.0911 45.0001Z" fill="#333333"/>
<path d="M90.1912 79.1215C90.553 78.4949 91.3544 78.2802 91.981 78.642L96.4294 81.2102C97.0561 81.5721 97.2708 82.3734 96.909 83.0001C96.5472 83.6267 95.7459 83.8414 95.1192 83.4796L90.6708 80.9114C90.0441 80.5495 89.8294 79.7482 90.1912 79.1215Z" fill="#333333"/>
<path d="M48.8786 90.1912C49.5052 90.553 49.72 91.3544 49.3581 91.981L46.7899 96.4294C46.4281 97.0561 45.6267 97.2708 45.0001 96.909C44.3734 96.5472 44.1587 95.7459 44.5205 95.1192L47.0888 90.6708C47.4506 90.0441 48.2519 89.8294 48.8786 90.1912Z" fill="#333333"/>
<path d="M96.4294 46.7899C97.0561 46.4281 97.2708 45.6267 96.909 45.0001C96.5472 44.3734 95.7459 44.1587 95.1192 44.5205L90.6708 47.0888C90.0441 47.4506 89.8294 48.2519 90.1912 48.8786C90.553 49.5052 91.3544 49.72 91.981 49.3581L96.4294 46.7899Z" fill="#333333"/>
<path d="M46.7899 31.5707C46.428 30.944 45.6267 30.7293 45 31.0911C44.3734 31.4529 44.1587 32.2542 44.5205 32.8809L47.0888 37.3293C47.4506 37.956 48.2519 38.1707 48.8786 37.8089C49.5052 37.4471 49.72 36.6457 49.3581 36.0191L46.7899 31.5707Z" fill="#333333"/>
<path d="M80.9113 90.6708C80.5495 90.0441 79.7482 89.8294 79.1215 90.1912C78.4949 90.553 78.2801 91.3544 78.642 91.981L81.2102 96.4294C81.572 97.0561 82.3734 97.2708 83 96.909C83.6267 96.5472 83.8414 95.7459 83.4796 95.1192L80.9113 90.6708Z" fill="#333333"/>
<path d="M37.3293 80.9113C37.956 80.5495 38.1707 79.7482 37.8089 79.1215C37.4471 78.4949 36.6457 78.2801 36.0191 78.642L31.5707 81.2102C30.944 81.5721 30.7293 82.3734 31.0911 83.0001C31.4529 83.6267 32.2542 83.8414 32.8809 83.4796L37.3293 80.9113Z" fill="#333333"/>
</svg>
