<svg width="374" height="217" viewBox="0 0 374 217" fill="none" xmlns="http://www.w3.org/2000/svg">
<path d="M73.708 196.218L73.168 194.058C72.832 192.882 72.508 191.634 72.196 190.314C71.884 188.994 71.572 187.722 71.26 186.498H71.116C70.828 187.746 70.528 189.03 70.216 190.35C69.928 191.646 69.616 192.882 69.28 194.058L68.704 196.218H73.708ZM74.788 200.358H67.624L66.184 205.938H60.784L68.128 182.466H74.5L81.844 205.938H76.228L74.788 200.358ZM93.7687 182.466H99.2047L105.325 194.13L107.629 199.314H107.773C107.653 198.066 107.509 196.674 107.341 195.138C107.197 193.602 107.125 192.138 107.125 190.746V182.466H112.165V205.938H106.729L100.609 194.238L98.3047 189.126H98.1607C98.2807 190.422 98.4127 191.814 98.5567 193.302C98.7247 194.79 98.8087 196.23 98.8087 197.622V205.938H93.7687V182.466ZM127.07 182.466H132.362V205.938H127.07V182.466ZM147.258 182.466H153.054L156.834 192.906C157.074 193.602 157.302 194.322 157.518 195.066C157.734 195.786 157.962 196.506 158.202 197.226H158.346C158.586 196.506 158.802 195.786 158.994 195.066C159.21 194.322 159.438 193.602 159.678 192.906L163.386 182.466H169.146V205.938H164.322V197.334C164.322 196.758 164.346 196.122 164.394 195.426C164.442 194.73 164.502 194.034 164.574 193.338C164.646 192.618 164.718 191.922 164.79 191.25C164.862 190.554 164.934 189.918 165.006 189.342H164.862L162.954 194.922L159.606 203.886H156.69L153.342 194.922L151.47 189.342H151.326C151.398 189.918 151.47 190.554 151.542 191.25C151.614 191.922 151.686 192.618 151.758 193.338C151.83 194.034 151.89 194.73 151.938 195.426C151.986 196.122 152.01 196.758 152.01 197.334V205.938H147.258V182.466ZM193.976 196.218L193.436 194.058C193.1 192.882 192.776 191.634 192.464 190.314C192.152 188.994 191.84 187.722 191.528 186.498H191.384C191.096 187.746 190.796 189.03 190.484 190.35C190.196 191.646 189.884 192.882 189.548 194.058L188.972 196.218H193.976ZM195.056 200.358H187.892L186.452 205.938H181.052L188.396 182.466H194.768L202.112 205.938H196.496L195.056 200.358ZM215.972 186.93H209.528V182.466H227.744V186.93H221.3V205.938H215.972V186.93ZM240.764 182.466H246.056V205.938H240.764V182.466ZM270.492 206.37C268.908 206.37 267.456 206.094 266.136 205.542C264.84 204.966 263.724 204.15 262.788 203.094C261.852 202.038 261.12 200.754 260.592 199.242C260.088 197.73 259.836 196.014 259.836 194.094C259.836 192.174 260.088 190.47 260.592 188.982C261.12 187.47 261.852 186.21 262.788 185.202C263.724 184.17 264.84 183.39 266.136 182.862C267.456 182.31 268.908 182.034 270.492 182.034C272.076 182.034 273.516 182.31 274.812 182.862C276.132 183.39 277.26 184.17 278.196 185.202C279.132 186.234 279.852 187.506 280.356 189.018C280.884 190.506 281.148 192.198 281.148 194.094C281.148 196.014 280.884 197.73 280.356 199.242C279.852 200.754 279.132 202.038 278.196 203.094C277.26 204.15 276.132 204.966 274.812 205.542C273.516 206.094 272.076 206.37 270.492 206.37ZM270.492 201.798C272.1 201.798 273.372 201.114 274.308 199.746C275.244 198.354 275.712 196.47 275.712 194.094C275.712 191.742 275.244 189.906 274.308 188.586C273.372 187.266 272.1 186.606 270.492 186.606C268.884 186.606 267.612 187.266 266.676 188.586C265.74 189.906 265.272 191.742 265.272 194.094C265.272 196.47 265.74 198.354 266.676 199.746C267.612 201.114 268.884 201.798 270.492 201.798ZM294.922 182.466H300.358L306.478 194.13L308.782 199.314H308.926C308.806 198.066 308.662 196.674 308.494 195.138C308.35 193.602 308.278 192.138 308.278 190.746V182.466H313.318V205.938H307.882L301.762 194.238L299.458 189.126H299.314C299.434 190.422 299.566 191.814 299.71 193.302C299.878 194.79 299.962 196.23 299.962 197.622V205.938H294.922V182.466Z" fill="#333333"/>
<path d="M73 123.438C77.5 126.438 85 129.438 85 129.438C85 129.438 93.2866 131.527 97.4309 131.527C102.346 131.527 105.912 130.706 108.129 129.063C110.442 127.42 111.598 125.197 111.598 122.394C111.598 120.944 111.261 119.688 110.586 118.625C109.912 117.562 108.948 116.644 107.695 115.87C106.442 115.001 104.9 114.227 103.069 113.551C101.334 112.778 99.3103 111.956 96.9972 111.086L84.8535 105.867C82.2513 104.901 79.6973 103.645 77.1915 102.098C74.782 100.552 72.6617 98.7639 70.8305 96.7343C68.9994 94.6081 67.5055 92.1919 66.349 89.4858C65.2888 86.6831 64.7587 83.542 64.7587 80.0627C64.7587 76.1969 65.5779 72.5726 67.2164 69.19C68.9512 65.7107 71.3124 62.7146 74.3002 60.2018C77.3842 57.5923 81.0466 55.5627 85.2872 54.113C89.5279 52.6633 94.2022 51.9385 99.3103 51.9385C105.093 51.9385 110.683 53.0016 116.08 55.1278C119.285 56.3905 122.303 57.9941 125.135 59.9385C123 67.9385 122.5 69.4385 119.839 77.8882C116.562 75.472 113.333 73.6357 110.153 72.3793C106.972 71.0263 103.358 70.3497 99.3103 70.3497C95.166 70.3497 91.9373 71.1229 89.6243 72.6692C87.4076 74.1189 86.2992 76.1969 86.2992 78.903C86.2992 81.8024 87.7449 83.9769 90.6362 85.4266C93.5276 86.8764 97.2381 88.4227 101.768 90.0657L113.189 94.9947C119.453 97.3142 124.369 100.504 127.935 104.563C131.597 108.622 133.428 113.986 133.428 120.654C133.428 124.617 132.609 128.386 130.97 131.962C129.332 135.441 126.971 138.534 123.887 141.24C120.803 143.85 116.996 145.976 112.466 147.619C107.936 149.165 102.732 149.938 96.8526 149.938C90.4917 149.938 84.1789 148.827 77.9143 146.604C74.2565 145.229 71 143.438 67.5 140.938C71 129.572 70.7118 131.708 73 123.438Z" fill="#FF7F2A"/>
<path d="M145 51.9385H163L186.5 127.938H187.5L211 51.9385H229L199.5 149.938H175L145 51.9385Z" fill="#FF7F2A"/>
<path d="M239.283 101.518C239.283 93.5933 240.391 86.5864 242.608 80.4977C244.921 74.3122 248.005 69.1416 251.86 64.9858C255.812 60.7334 260.438 57.4957 265.739 55.2728C271.039 53.0499 276.726 51.9385 282.797 51.9385C289.158 51.9385 294.556 53.1949 298.989 55.7077C300.963 56.7608 302.8 57.8782 304.5 59.0598C303 63.9385 301.5 68.9385 298.7 77.1633C296.676 75.1337 294.459 73.4907 292.05 72.2343C289.64 70.9779 286.556 70.3497 282.797 70.3497C279.713 70.3497 276.87 71.0746 274.268 72.5243C271.666 73.8773 269.401 75.8586 267.473 78.4681C265.546 81.0775 264.004 84.2669 262.847 88.0361C261.787 91.8053 261.257 96.0578 261.257 100.794C261.257 110.555 263.088 118.142 266.75 123.554C270.509 128.869 276.147 131.527 283.665 131.527C285.496 131.527 287.231 131.286 288.869 130.802C290.508 130.319 293.44 129.642 294.5 128.675V112.438L279.183 112.391V94.9947H312V136.438C304.485 145.456 294.07 149.938 282.508 149.938C276.436 149.938 270.75 148.924 265.449 146.894C260.245 144.768 255.667 141.675 251.716 137.616C247.86 133.557 244.824 128.531 242.608 122.539C240.391 116.45 239.283 109.443 239.283 101.518Z" fill="#FF7F2A"/>
<path d="M73 123.438C77.5 126.438 85 129.438 85 129.438C85 129.438 93.2866 131.527 97.4309 131.527C102.346 131.527 105.912 130.706 108.129 129.063C110.442 127.42 111.598 125.197 111.598 122.394C111.598 120.944 111.261 119.688 110.586 118.625C109.912 117.562 108.948 116.644 107.695 115.87C106.442 115.001 104.9 114.227 103.069 113.551C101.334 112.778 99.3103 111.956 96.9972 111.086L84.8535 105.867C82.2513 104.901 79.6973 103.645 77.1915 102.098C74.782 100.552 72.6617 98.7639 70.8305 96.7343C68.9994 94.6081 67.5055 92.1919 66.349 89.4858C65.2888 86.6831 64.7587 83.542 64.7587 80.0627C64.7587 76.1969 65.5779 72.5726 67.2164 69.19C68.9512 65.7107 71.3124 62.7146 74.3002 60.2018C77.3842 57.5923 81.0466 55.5627 85.2872 54.113C89.5279 52.6633 94.2022 51.9385 99.3103 51.9385C105.093 51.9385 110.683 53.0016 116.08 55.1278C119.285 56.3905 122.303 57.9941 125.135 59.9385C123 67.9385 122.5 69.4385 119.839 77.8882C116.562 75.472 113.333 73.6357 110.153 72.3793C106.972 71.0263 103.358 70.3497 99.3103 70.3497C95.166 70.3497 91.9373 71.1229 89.6243 72.6692C87.4076 74.1189 86.2992 76.1969 86.2992 78.903C86.2992 81.8024 87.7449 83.9769 90.6362 85.4266C93.5276 86.8764 97.2381 88.4227 101.768 90.0657L113.189 94.9947C119.453 97.3142 124.369 100.504 127.935 104.563C131.597 108.622 133.428 113.986 133.428 120.654C133.428 124.617 132.609 128.386 130.97 131.962C129.332 135.441 126.971 138.534 123.887 141.24C120.803 143.85 116.996 145.976 112.466 147.619C107.936 149.165 102.732 149.938 96.8526 149.938C90.4917 149.938 84.1789 148.827 77.9143 146.604C74.2565 145.229 71 143.438 67.5 140.938C71 129.572 70.7118 131.708 73 123.438Z" stroke="#FF7F2A" stroke-width="3"/>
<path d="M145 51.9385H163L186.5 127.938H187.5L211 51.9385H229L199.5 149.938H175L145 51.9385Z" stroke="#FF7F2A" stroke-width="3"/>
<path d="M239.283 101.518C239.283 93.5933 240.391 86.5864 242.608 80.4977C244.921 74.3122 248.005 69.1416 251.86 64.9858C255.812 60.7334 260.438 57.4957 265.739 55.2728C271.039 53.0499 276.726 51.9385 282.797 51.9385C289.158 51.9385 294.556 53.1949 298.989 55.7077C300.963 56.7608 302.8 57.8782 304.5 59.0598C303 63.9385 301.5 68.9385 298.7 77.1633C296.676 75.1337 294.459 73.4907 292.05 72.2343C289.64 70.9779 286.556 70.3497 282.797 70.3497C279.713 70.3497 276.87 71.0746 274.268 72.5243C271.666 73.8773 269.401 75.8586 267.473 78.4681C265.546 81.0775 264.004 84.2669 262.847 88.0361C261.787 91.8053 261.257 96.0578 261.257 100.794C261.257 110.555 263.088 118.142 266.75 123.554C270.509 128.869 276.147 131.527 283.665 131.527C285.496 131.527 287.231 131.286 288.869 130.802C290.508 130.319 293.44 129.642 294.5 128.675V112.438L279.183 112.391V94.9947H312V136.438C304.485 145.456 294.07 149.938 282.508 149.938C276.436 149.938 270.75 148.924 265.449 146.894C260.245 144.768 255.667 141.675 251.716 137.616C247.86 133.557 244.824 128.531 242.608 122.539C240.391 116.45 239.283 109.443 239.283 101.518Z" stroke="#FF7F2A" stroke-width="3"/>
<path d="M25.5 51.4385H25V52.4385H25.5L25.5 51.4385ZM347.5 52.4385H348V51.4385H347.5V52.4385ZM26.4938 52.4385H26.9938V51.4385H26.4938V52.4385ZM30.4691 51.4385H29.9691V52.4385L30.4691 52.4385V51.4385ZM32.4568 52.4385H32.9568V51.4385L32.4568 51.4385V52.4385ZM36.4321 51.4385H35.9321V52.4385H36.4321V51.4385ZM38.4198 52.4385H38.9198V51.4385H38.4198V52.4385ZM42.3951 51.4385L41.8951 51.4385V52.4385H42.3951V51.4385ZM44.3827 52.4385H44.8827V51.4385H44.3827V52.4385ZM48.358 51.4385H47.858V52.4385H48.358V51.4385ZM50.3457 52.4385H50.8457V51.4385H50.3457V52.4385ZM54.321 51.4385H53.821V52.4385H54.321V51.4385ZM56.3086 52.4385H56.8086V51.4385L56.3086 51.4385V52.4385ZM60.284 51.4385H59.784V52.4385H60.284V51.4385ZM62.2716 52.4385H62.7716V51.4385H62.2716V52.4385ZM66.2469 51.4385L65.7469 51.4385V52.4385H66.2469V51.4385ZM68.2346 52.4385H68.7346V51.4385H68.2346V52.4385ZM72.2099 51.4385H71.7099V52.4385H72.2099V51.4385ZM74.1975 52.4385H74.6975V51.4385H74.1975V52.4385ZM78.1728 51.4385H77.6728V52.4385H78.1728V51.4385ZM80.1605 52.4385H80.6605V51.4385H80.1605V52.4385ZM84.1358 51.4385H83.6358V52.4385H84.1358V51.4385ZM86.1235 52.4385H86.6235V51.4385H86.1235V52.4385ZM90.0988 51.4385H89.5988V52.4385H90.0988V51.4385ZM92.0864 52.4385H92.5864V51.4385H92.0864V52.4385ZM96.0617 51.4385H95.5617V52.4385H96.0617V51.4385ZM98.0494 52.4385H98.5494V51.4385H98.0494V52.4385ZM102.025 51.4385H101.525V52.4385H102.025V51.4385ZM104.012 52.4385H104.512V51.4385H104.012V52.4385ZM107.988 51.4385H107.488V52.4385H107.988V51.4385ZM109.975 52.4385H110.475V51.4385H109.975V52.4385ZM113.951 51.4385H113.451V52.4385H113.951V51.4385ZM115.938 52.4385H116.438V51.4385H115.938V52.4385ZM119.914 51.4385H119.414V52.4385H119.914V51.4385ZM121.901 52.4385H122.401V51.4385H121.901V52.4385ZM125.877 51.4385H125.377V52.4385H125.877V51.4385ZM127.864 52.4385H128.364V51.4385H127.864V52.4385ZM131.84 51.4385H131.34V52.4385H131.84V51.4385ZM133.827 52.4385H134.327V51.4385H133.827V52.4385ZM137.803 51.4385H137.303V52.4385H137.803V51.4385ZM139.79 52.4385H140.29V51.4385H139.79V52.4385ZM143.765 51.4385H143.265V52.4385H143.765V51.4385ZM145.753 52.4385H146.253V51.4385H145.753V52.4385ZM149.728 51.4385H149.228V52.4385H149.728V51.4385ZM151.716 52.4385H152.216V51.4385H151.716V52.4385ZM155.691 51.4385H155.191V52.4385H155.691V51.4385ZM157.679 52.4385H158.179V51.4385H157.679V52.4385ZM161.654 51.4385H161.154V52.4385H161.654V51.4385ZM163.642 52.4385H164.142V51.4385H163.642V52.4385ZM167.617 51.4385H167.117V52.4385H167.617V51.4385ZM169.605 52.4385H170.105V51.4385L169.605 51.4385V52.4385ZM173.58 51.4385H173.08V52.4385H173.58V51.4385ZM175.568 52.4385H176.068V51.4385H175.568V52.4385ZM179.543 51.4385L179.043 51.4385V52.4385H179.543V51.4385ZM181.531 52.4385L182.031 52.4385V51.4385H181.531V52.4385ZM185.506 51.4385H185.006V52.4385H185.506V51.4385ZM187.494 52.4385H187.994V51.4385H187.494V52.4385ZM191.469 51.4385H190.969V52.4385L191.469 52.4385V51.4385ZM193.457 52.4385H193.957V51.4385L193.457 51.4385V52.4385ZM197.432 51.4385H196.932V52.4385H197.432V51.4385ZM199.42 52.4385H199.92V51.4385H199.42V52.4385ZM203.395 51.4385L202.895 51.4385V52.4385H203.395V51.4385ZM205.383 52.4385H205.883V51.4385H205.383V52.4385ZM209.358 51.4385H208.858V52.4385H209.358V51.4385ZM211.346 52.4385H211.846V51.4385H211.346V52.4385ZM215.321 51.4385H214.821V52.4385H215.321V51.4385ZM217.309 52.4385H217.809V51.4385L217.309 51.4385V52.4385ZM221.284 51.4385H220.784V52.4385H221.284V51.4385ZM223.272 52.4385H223.772V51.4385H223.272V52.4385ZM227.247 51.4385L226.747 51.4385V52.4385H227.247V51.4385ZM229.235 52.4385H229.735V51.4385H229.235V52.4385ZM233.21 51.4385H232.71V52.4385H233.21V51.4385ZM235.198 52.4385H235.698V51.4385H235.198V52.4385ZM239.173 51.4385H238.673V52.4385H239.173V51.4385ZM241.161 52.4385H241.661V51.4385H241.161V52.4385ZM245.136 51.4385H244.636V52.4385H245.136V51.4385ZM247.124 52.4385H247.624V51.4385H247.124V52.4385ZM251.099 51.4385H250.599V52.4385H251.099V51.4385ZM253.087 52.4385H253.587V51.4385H253.087V52.4385ZM257.062 51.4385H256.562V52.4385H257.062V51.4385ZM259.049 52.4385H259.549V51.4385H259.049V52.4385ZM263.025 51.4385H262.525V52.4385H263.025V51.4385ZM265.012 52.4385H265.512V51.4385H265.012V52.4385ZM268.988 51.4385H268.488V52.4385H268.988V51.4385ZM270.975 52.4385H271.475V51.4385H270.975V52.4385ZM274.951 51.4385H274.451V52.4385H274.951V51.4385ZM276.938 52.4385H277.438V51.4385H276.938V52.4385ZM280.914 51.4385H280.414V52.4385H280.914V51.4385ZM282.901 52.4385H283.401V51.4385H282.901V52.4385ZM286.877 51.4385H286.377V52.4385H286.877V51.4385ZM288.864 52.4385H289.364V51.4385H288.864V52.4385ZM292.84 51.4385H292.34V52.4385H292.84V51.4385ZM294.827 52.4385H295.327V51.4385H294.827V52.4385ZM298.803 51.4385H298.303V52.4385H298.803V51.4385ZM300.79 52.4385H301.29V51.4385H300.79V52.4385ZM304.766 51.4385H304.266V52.4385H304.766V51.4385ZM306.753 52.4385H307.253V51.4385H306.753V52.4385ZM310.728 51.4385H310.228V52.4385H310.728V51.4385ZM312.716 52.4385H313.216V51.4385H312.716V52.4385ZM316.691 51.4385H316.191V52.4385H316.691V51.4385ZM318.679 52.4385H319.179V51.4385H318.679V52.4385ZM322.654 51.4385H322.154V52.4385H322.654V51.4385ZM324.642 52.4385H325.142V51.4385H324.642V52.4385ZM328.617 51.4385H328.117V52.4385H328.617V51.4385ZM330.605 52.4385H331.105V51.4385L330.605 51.4385V52.4385ZM334.58 51.4385H334.08V52.4385H334.58V51.4385ZM336.568 52.4385H337.068V51.4385H336.568V52.4385ZM340.543 51.4385L340.043 51.4385V52.4385H340.543V51.4385ZM342.531 52.4385L343.031 52.4385V51.4385H342.531V52.4385ZM346.506 51.4385H346.006V52.4385H346.506V51.4385ZM25.5 52.4385H26.4938V51.4385H25.5L25.5 52.4385ZM30.4691 52.4385H32.4568V51.4385H30.4691V52.4385ZM36.4321 52.4385H38.4198V51.4385L36.4321 51.4385V52.4385ZM42.3951 52.4385H44.3827V51.4385H42.3951V52.4385ZM48.358 52.4385L50.3457 52.4385V51.4385H48.358V52.4385ZM54.321 52.4385H56.3086V51.4385H54.321V52.4385ZM60.284 52.4385H62.2716V51.4385L60.284 51.4385V52.4385ZM66.2469 52.4385L68.2346 52.4385V51.4385H66.2469V52.4385ZM72.2099 52.4385H74.1975V51.4385H72.2099V52.4385ZM78.1728 52.4385H80.1605V51.4385L78.1728 51.4385V52.4385ZM84.1358 52.4385H86.1235V51.4385L84.1358 51.4385V52.4385ZM90.0988 52.4385H92.0864V51.4385H90.0988V52.4385ZM96.0617 52.4385L98.0494 52.4385V51.4385H96.0617V52.4385ZM102.025 52.4385H104.012V51.4385L102.025 51.4385V52.4385ZM107.988 52.4385H109.975V51.4385L107.988 51.4385V52.4385ZM113.951 52.4385L115.938 52.4385V51.4385H113.951V52.4385ZM119.914 52.4385H121.901V51.4385H119.914V52.4385ZM125.877 52.4385H127.864V51.4385L125.877 51.4385V52.4385ZM131.84 52.4385H133.827V51.4385L131.84 51.4385V52.4385ZM137.803 52.4385H139.79V51.4385H137.803V52.4385ZM143.765 52.4385L145.753 52.4385V51.4385H143.765V52.4385ZM149.728 52.4385H151.716V51.4385L149.728 51.4385V52.4385ZM155.691 52.4385H157.679V51.4385L155.691 51.4385V52.4385ZM161.654 52.4385L163.642 52.4385V51.4385H161.654V52.4385ZM167.617 52.4385H169.605V51.4385H167.617V52.4385ZM173.58 52.4385H175.568V51.4385L173.58 51.4385V52.4385ZM179.543 52.4385H181.531V51.4385H179.543V52.4385ZM185.506 52.4385H187.494V51.4385H185.506V52.4385ZM191.469 52.4385H193.457V51.4385H191.469V52.4385ZM197.432 52.4385H199.42V51.4385L197.432 51.4385V52.4385ZM203.395 52.4385H205.383V51.4385H203.395V52.4385ZM209.358 52.4385L211.346 52.4385V51.4385H209.358V52.4385ZM215.321 52.4385H217.309V51.4385H215.321V52.4385ZM221.284 52.4385H223.272V51.4385L221.284 51.4385V52.4385ZM227.247 52.4385L229.235 52.4385V51.4385H227.247V52.4385ZM233.21 52.4385H235.198V51.4385H233.21V52.4385ZM239.173 52.4385H241.161V51.4385L239.173 51.4385V52.4385ZM245.136 52.4385H247.124V51.4385L245.136 51.4385V52.4385ZM251.099 52.4385H253.087V51.4385H251.099V52.4385ZM257.062 52.4385L259.049 52.4385V51.4385H257.062V52.4385ZM263.025 52.4385H265.012V51.4385L263.025 51.4385V52.4385ZM268.988 52.4385H270.975V51.4385L268.988 51.4385V52.4385ZM274.951 52.4385L276.938 52.4385V51.4385H274.951V52.4385ZM280.914 52.4385H282.901V51.4385H280.914V52.4385ZM286.877 52.4385H288.864V51.4385L286.877 51.4385V52.4385ZM292.84 52.4385H294.827V51.4385L292.84 51.4385V52.4385ZM298.803 52.4385H300.79V51.4385H298.803V52.4385ZM304.766 52.4385L306.753 52.4385V51.4385H304.766V52.4385ZM310.728 52.4385H312.716V51.4385L310.728 51.4385V52.4385ZM316.691 52.4385H318.679V51.4385L316.691 51.4385V52.4385ZM322.654 52.4385L324.642 52.4385V51.4385H322.654V52.4385ZM328.617 52.4385H330.605V51.4385H328.617V52.4385ZM334.58 52.4385H336.568V51.4385L334.58 51.4385V52.4385ZM340.543 52.4385H342.531V51.4385H340.543V52.4385ZM346.506 52.4385H347.5V51.4385H346.506V52.4385Z" fill="#FF529B"/>
<path d="M25.5 149.438H25V150.438H25.5L25.5 149.438ZM347.5 150.438H348V149.438H347.5V150.438ZM26.4938 150.438H26.9938V149.438H26.4938V150.438ZM30.4691 149.438H29.9691V150.438L30.4691 150.438V149.438ZM32.4568 150.438H32.9568V149.438L32.4568 149.438V150.438ZM36.4321 149.438H35.9321V150.438H36.4321V149.438ZM38.4198 150.438H38.9198V149.438H38.4198V150.438ZM42.3951 149.438L41.8951 149.438V150.438H42.3951V149.438ZM44.3827 150.438H44.8827V149.438H44.3827V150.438ZM48.358 149.438H47.858V150.438H48.358V149.438ZM50.3457 150.438H50.8457V149.438H50.3457V150.438ZM54.321 149.438H53.821V150.438H54.321V149.438ZM56.3086 150.438H56.8086V149.438L56.3086 149.438V150.438ZM60.284 149.438H59.784V150.438H60.284V149.438ZM62.2716 150.438H62.7716V149.438H62.2716V150.438ZM66.2469 149.438L65.7469 149.438V150.438H66.2469V149.438ZM68.2346 150.438H68.7346V149.438H68.2346V150.438ZM72.2099 149.438H71.7099V150.438H72.2099V149.438ZM74.1975 150.438H74.6975V149.438H74.1975V150.438ZM78.1728 149.438H77.6728V150.438H78.1728V149.438ZM80.1605 150.438H80.6605V149.438H80.1605V150.438ZM84.1358 149.438H83.6358V150.438H84.1358V149.438ZM86.1235 150.438H86.6235V149.438H86.1235V150.438ZM90.0988 149.438H89.5988V150.438H90.0988V149.438ZM92.0864 150.438H92.5864V149.438H92.0864V150.438ZM96.0617 149.438H95.5617V150.438H96.0617V149.438ZM98.0494 150.438H98.5494V149.438H98.0494V150.438ZM102.025 149.438H101.525V150.438H102.025V149.438ZM104.012 150.438H104.512V149.438H104.012V150.438ZM107.988 149.438H107.488V150.438H107.988V149.438ZM109.975 150.438H110.475V149.438H109.975V150.438ZM113.951 149.438H113.451V150.438H113.951V149.438ZM115.938 150.438H116.438V149.438H115.938V150.438ZM119.914 149.438H119.414V150.438H119.914V149.438ZM121.901 150.438H122.401V149.438H121.901V150.438ZM125.877 149.438H125.377V150.438H125.877V149.438ZM127.864 150.438H128.364V149.438H127.864V150.438ZM131.84 149.438H131.34V150.438H131.84V149.438ZM133.827 150.438H134.327V149.438H133.827V150.438ZM137.803 149.438H137.303V150.438H137.803V149.438ZM139.79 150.438H140.29V149.438H139.79V150.438ZM143.765 149.438H143.265V150.438H143.765V149.438ZM145.753 150.438H146.253V149.438H145.753V150.438ZM149.728 149.438H149.228V150.438H149.728V149.438ZM151.716 150.438H152.216V149.438H151.716V150.438ZM155.691 149.438H155.191V150.438H155.691V149.438ZM157.679 150.438H158.179V149.438H157.679V150.438ZM161.654 149.438H161.154V150.438H161.654V149.438ZM163.642 150.438H164.142V149.438H163.642V150.438ZM167.617 149.438H167.117V150.438H167.617V149.438ZM169.605 150.438H170.105V149.438L169.605 149.438V150.438ZM173.58 149.438H173.08V150.438H173.58V149.438ZM175.568 150.438H176.068V149.438H175.568V150.438ZM179.543 149.438L179.043 149.438V150.438H179.543V149.438ZM181.531 150.438L182.031 150.438V149.438H181.531V150.438ZM185.506 149.438H185.006V150.438H185.506V149.438ZM187.494 150.438H187.994V149.438H187.494V150.438ZM191.469 149.438H190.969V150.438L191.469 150.438V149.438ZM193.457 150.438H193.957V149.438L193.457 149.438V150.438ZM197.432 149.438H196.932V150.438H197.432V149.438ZM199.42 150.438H199.92V149.438H199.42V150.438ZM203.395 149.438L202.895 149.438V150.438H203.395V149.438ZM205.383 150.438H205.883V149.438H205.383V150.438ZM209.358 149.438H208.858V150.438H209.358V149.438ZM211.346 150.438H211.846V149.438H211.346V150.438ZM215.321 149.438H214.821V150.438H215.321V149.438ZM217.309 150.438H217.809V149.438L217.309 149.438V150.438ZM221.284 149.438H220.784V150.438H221.284V149.438ZM223.272 150.438H223.772V149.438H223.272V150.438ZM227.247 149.438L226.747 149.438V150.438H227.247V149.438ZM229.235 150.438H229.735V149.438H229.235V150.438ZM233.21 149.438H232.71V150.438H233.21V149.438ZM235.198 150.438H235.698V149.438H235.198V150.438ZM239.173 149.438H238.673V150.438H239.173V149.438ZM241.161 150.438H241.661V149.438H241.161V150.438ZM245.136 149.438H244.636V150.438H245.136V149.438ZM247.124 150.438H247.624V149.438H247.124V150.438ZM251.099 149.438H250.599V150.438H251.099V149.438ZM253.087 150.438H253.587V149.438H253.087V150.438ZM257.062 149.438H256.562V150.438H257.062V149.438ZM259.049 150.438H259.549V149.438H259.049V150.438ZM263.025 149.438H262.525V150.438H263.025V149.438ZM265.012 150.438H265.512V149.438H265.012V150.438ZM268.988 149.438H268.488V150.438H268.988V149.438ZM270.975 150.438H271.475V149.438H270.975V150.438ZM274.951 149.438H274.451V150.438H274.951V149.438ZM276.938 150.438H277.438V149.438H276.938V150.438ZM280.914 149.438H280.414V150.438H280.914V149.438ZM282.901 150.438H283.401V149.438H282.901V150.438ZM286.877 149.438H286.377V150.438H286.877V149.438ZM288.864 150.438H289.364V149.438H288.864V150.438ZM292.84 149.438H292.34V150.438H292.84V149.438ZM294.827 150.438H295.327V149.438H294.827V150.438ZM298.803 149.438H298.303V150.438H298.803V149.438ZM300.79 150.438H301.29V149.438H300.79V150.438ZM304.766 149.438H304.266V150.438H304.766V149.438ZM306.753 150.438H307.253V149.438H306.753V150.438ZM310.728 149.438H310.228V150.438H310.728V149.438ZM312.716 150.438H313.216V149.438H312.716V150.438ZM316.691 149.438H316.191V150.438H316.691V149.438ZM318.679 150.438H319.179V149.438H318.679V150.438ZM322.654 149.438H322.154V150.438H322.654V149.438ZM324.642 150.438H325.142V149.438H324.642V150.438ZM328.617 149.438H328.117V150.438H328.617V149.438ZM330.605 150.438H331.105V149.438L330.605 149.438V150.438ZM334.58 149.438H334.08V150.438H334.58V149.438ZM336.568 150.438H337.068V149.438H336.568V150.438ZM340.543 149.438L340.043 149.438V150.438H340.543V149.438ZM342.531 150.438L343.031 150.438V149.438H342.531V150.438ZM346.506 149.438H346.006V150.438H346.506V149.438ZM25.5 150.438H26.4938V149.438H25.5L25.5 150.438ZM30.4691 150.438H32.4568V149.438H30.4691V150.438ZM36.4321 150.438H38.4198V149.438L36.4321 149.438V150.438ZM42.3951 150.438H44.3827V149.438H42.3951V150.438ZM48.358 150.438L50.3457 150.438V149.438H48.358V150.438ZM54.321 150.438H56.3086V149.438H54.321V150.438ZM60.284 150.438H62.2716V149.438L60.284 149.438V150.438ZM66.2469 150.438L68.2346 150.438V149.438H66.2469V150.438ZM72.2099 150.438H74.1975V149.438H72.2099V150.438ZM78.1728 150.438H80.1605V149.438L78.1728 149.438V150.438ZM84.1358 150.438H86.1235V149.438L84.1358 149.438V150.438ZM90.0988 150.438H92.0864V149.438H90.0988V150.438ZM96.0617 150.438L98.0494 150.438V149.438H96.0617V150.438ZM102.025 150.438H104.012V149.438L102.025 149.438V150.438ZM107.988 150.438H109.975V149.438L107.988 149.438V150.438ZM113.951 150.438L115.938 150.438V149.438H113.951V150.438ZM119.914 150.438H121.901V149.438H119.914V150.438ZM125.877 150.438H127.864V149.438L125.877 149.438V150.438ZM131.84 150.438H133.827V149.438L131.84 149.438V150.438ZM137.803 150.438H139.79V149.438H137.803V150.438ZM143.765 150.438L145.753 150.438V149.438H143.765V150.438ZM149.728 150.438H151.716V149.438L149.728 149.438V150.438ZM155.691 150.438H157.679V149.438L155.691 149.438V150.438ZM161.654 150.438L163.642 150.438V149.438H161.654V150.438ZM167.617 150.438H169.605V149.438H167.617V150.438ZM173.58 150.438H175.568V149.438L173.58 149.438V150.438ZM179.543 150.438H181.531V149.438H179.543V150.438ZM185.506 150.438H187.494V149.438H185.506V150.438ZM191.469 150.438H193.457V149.438H191.469V150.438ZM197.432 150.438H199.42V149.438L197.432 149.438V150.438ZM203.395 150.438H205.383V149.438H203.395V150.438ZM209.358 150.438L211.346 150.438V149.438H209.358V150.438ZM215.321 150.438H217.309V149.438H215.321V150.438ZM221.284 150.438H223.272V149.438L221.284 149.438V150.438ZM227.247 150.438L229.235 150.438V149.438H227.247V150.438ZM233.21 150.438H235.198V149.438H233.21V150.438ZM239.173 150.438H241.161V149.438L239.173 149.438V150.438ZM245.136 150.438H247.124V149.438L245.136 149.438V150.438ZM251.099 150.438H253.087V149.438H251.099V150.438ZM257.062 150.438L259.049 150.438V149.438H257.062V150.438ZM263.025 150.438H265.012V149.438L263.025 149.438V150.438ZM268.988 150.438H270.975V149.438L268.988 149.438V150.438ZM274.951 150.438L276.938 150.438V149.438H274.951V150.438ZM280.914 150.438H282.901V149.438H280.914V150.438ZM286.877 150.438H288.864V149.438L286.877 149.438V150.438ZM292.84 150.438H294.827V149.438L292.84 149.438V150.438ZM298.803 150.438H300.79V149.438H298.803V150.438ZM304.766 150.438L306.753 150.438V149.438H304.766V150.438ZM310.728 150.438H312.716V149.438L310.728 149.438V150.438ZM316.691 150.438H318.679V149.438L316.691 149.438V150.438ZM322.654 150.438L324.642 150.438V149.438H322.654V150.438ZM328.617 150.438H330.605V149.438H328.617V150.438ZM334.58 150.438H336.568V149.438L334.58 149.438V150.438ZM340.543 150.438H342.531V149.438H340.543V150.438ZM346.506 150.438H347.5V149.438H346.506V150.438Z" fill="#FF529B"/>
<path d="M227 93.9385H226.5V94.9385H227V93.9385ZM346.5 94.9385H347V93.9385H346.5V94.9385ZM227.996 94.9385H228.496V93.9385H227.996V94.9385ZM231.979 93.9385H231.479V94.9385H231.979V93.9385ZM233.971 94.9385H234.471V93.9385H233.971V94.9385ZM237.954 93.9385H237.454V94.9385H237.954V93.9385ZM239.946 94.9385H240.446V93.9385H239.946V94.9385ZM243.929 93.9385H243.429V94.9385H243.929V93.9385ZM245.921 94.9385H246.421V93.9385H245.921V94.9385ZM249.904 93.9385H249.404V94.9385H249.904V93.9385ZM251.896 94.9385H252.396V93.9385H251.896V94.9385ZM255.879 93.9385H255.379V94.9385H255.879V93.9385ZM257.871 94.9385H258.371V93.9385H257.871V94.9385ZM261.854 93.9385H261.354V94.9385H261.854V93.9385ZM263.846 94.9385H264.346V93.9385H263.846V94.9385ZM267.829 93.9385H267.329V94.9385H267.829V93.9385ZM269.821 94.9385H270.321V93.9385H269.821V94.9385ZM273.804 93.9385H273.304V94.9385H273.804V93.9385ZM275.796 94.9385H276.296V93.9385H275.796V94.9385ZM279.779 93.9385H279.279V94.9385H279.779V93.9385ZM281.771 94.9385H282.271V93.9385H281.771V94.9385ZM285.754 93.9385H285.254V94.9385H285.754V93.9385ZM287.746 94.9385H288.246V93.9385H287.746V94.9385ZM291.729 93.9385H291.229V94.9385H291.729V93.9385ZM293.721 94.9385H294.221V93.9385H293.721V94.9385ZM297.704 93.9385H297.204V94.9385H297.704V93.9385ZM299.696 94.9385H300.196V93.9385H299.696V94.9385ZM303.679 93.9385H303.179V94.9385H303.679V93.9385ZM305.671 94.9385H306.171V93.9385H305.671V94.9385ZM309.654 93.9385H309.154V94.9385H309.654V93.9385ZM311.646 94.9385H312.146V93.9385H311.646V94.9385ZM315.629 93.9385H315.129V94.9385H315.629V93.9385ZM317.621 94.9385H318.121V93.9385H317.621V94.9385ZM321.604 93.9385H321.104V94.9385H321.604V93.9385ZM323.596 94.9385H324.096V93.9385H323.596V94.9385ZM327.579 93.9385H327.079V94.9385H327.579V93.9385ZM329.571 94.9385H330.071V93.9385H329.571V94.9385ZM333.554 93.9385H333.054V94.9385H333.554V93.9385ZM335.546 94.9385H336.046V93.9385H335.546V94.9385ZM339.529 93.9385H339.029V94.9385H339.529V93.9385ZM341.521 94.9385H342.021V93.9385H341.521V94.9385ZM345.504 93.9385H345.004V94.9385H345.504V93.9385ZM227 94.9385H227.996V93.9385H227V94.9385ZM231.979 94.9385H233.971V93.9385H231.979V94.9385ZM237.954 94.9385H239.946V93.9385H237.954V94.9385ZM243.929 94.9385H245.921V93.9385H243.929V94.9385ZM249.904 94.9385H251.896V93.9385H249.904V94.9385ZM255.879 94.9385H257.871V93.9385H255.879V94.9385ZM261.854 94.9385H263.846V93.9385H261.854V94.9385ZM267.829 94.9385H269.821V93.9385H267.829V94.9385ZM273.804 94.9385H275.796V93.9385H273.804V94.9385ZM279.779 94.9385H281.771V93.9385H279.779V94.9385ZM285.754 94.9385H287.746V93.9385H285.754V94.9385ZM291.729 94.9385H293.721V93.9385H291.729V94.9385ZM297.704 94.9385H299.696V93.9385H297.704V94.9385ZM303.679 94.9385H305.671V93.9385H303.679V94.9385ZM309.654 94.9385H311.646V93.9385H309.654V94.9385ZM315.629 94.9385H317.621V93.9385H315.629V94.9385ZM321.604 94.9385H323.596V93.9385H321.604V94.9385ZM327.579 94.9385H329.571V93.9385H327.579V94.9385ZM333.554 94.9385H335.546V93.9385H333.554V94.9385ZM339.529 94.9385H341.521V93.9385H339.529V94.9385ZM345.504 94.9385H346.5V93.9385H345.504V94.9385Z" fill="#FF529B"/>
<path d="M227 112.438H226.5V113.438H227V112.438ZM346.5 113.438H347V112.438H346.5V113.438ZM227.996 113.438H228.496V112.438H227.996V113.438ZM231.979 112.438H231.479V113.438H231.979V112.438ZM233.971 113.438H234.471V112.438H233.971V113.438ZM237.954 112.438H237.454V113.438H237.954V112.438ZM239.946 113.438H240.446V112.438H239.946V113.438ZM243.929 112.438H243.429V113.438H243.929V112.438ZM245.921 113.438H246.421V112.438H245.921V113.438ZM249.904 112.438H249.404V113.438H249.904V112.438ZM251.896 113.438H252.396V112.438H251.896V113.438ZM255.879 112.438H255.379V113.438H255.879V112.438ZM257.871 113.438H258.371V112.438H257.871V113.438ZM261.854 112.438H261.354V113.438H261.854V112.438ZM263.846 113.438H264.346V112.438H263.846V113.438ZM267.829 112.438H267.329V113.438H267.829V112.438ZM269.821 113.438H270.321V112.438H269.821V113.438ZM273.804 112.438H273.304V113.438H273.804V112.438ZM275.796 113.438H276.296V112.438H275.796V113.438ZM279.779 112.438H279.279V113.438H279.779V112.438ZM281.771 113.438H282.271V112.438H281.771V113.438ZM285.754 112.438H285.254V113.438H285.754V112.438ZM287.746 113.438H288.246V112.438H287.746V113.438ZM291.729 112.438H291.229V113.438H291.729V112.438ZM293.721 113.438H294.221V112.438H293.721V113.438ZM297.704 112.438H297.204V113.438H297.704V112.438ZM299.696 113.438H300.196V112.438H299.696V113.438ZM303.679 112.438H303.179V113.438H303.679V112.438ZM305.671 113.438H306.171V112.438H305.671V113.438ZM309.654 112.438H309.154V113.438H309.654V112.438ZM311.646 113.438H312.146V112.438H311.646V113.438ZM315.629 112.438H315.129V113.438H315.629V112.438ZM317.621 113.438H318.121V112.438H317.621V113.438ZM321.604 112.438H321.104V113.438H321.604V112.438ZM323.596 113.438H324.096V112.438H323.596V113.438ZM327.579 112.438H327.079V113.438H327.579V112.438ZM329.571 113.438H330.071V112.438H329.571V113.438ZM333.554 112.438H333.054V113.438H333.554V112.438ZM335.546 113.438H336.046V112.438H335.546V113.438ZM339.529 112.438H339.029V113.438H339.529V112.438ZM341.521 113.438H342.021V112.438H341.521V113.438ZM345.504 112.438H345.004V113.438H345.504V112.438ZM227 113.438H227.996V112.438H227V113.438ZM231.979 113.438H233.971V112.438H231.979V113.438ZM237.954 113.438H239.946V112.438H237.954V113.438ZM243.929 113.438H245.921V112.438H243.929V113.438ZM249.904 113.438H251.896V112.438H249.904V113.438ZM255.879 113.438H257.871V112.438H255.879V113.438ZM261.854 113.438H263.846V112.438H261.854V113.438ZM267.829 113.438H269.821V112.438H267.829V113.438ZM273.804 113.438H275.796V112.438H273.804V113.438ZM279.779 113.438H281.771V112.438H279.779V113.438ZM285.754 113.438H287.746V112.438H285.754V113.438ZM291.729 113.438H293.721V112.438H291.729V113.438ZM297.704 113.438H299.696V112.438H297.704V113.438ZM303.679 113.438H305.671V112.438H303.679V113.438ZM309.654 113.438H311.646V112.438H309.654V113.438ZM315.629 113.438H317.621V112.438H315.629V113.438ZM321.604 113.438H323.596V112.438H321.604V113.438ZM327.579 113.438H329.571V112.438H327.579V113.438ZM333.554 113.438H335.546V112.438H333.554V113.438ZM339.529 113.438H341.521V112.438H339.529V113.438ZM345.504 113.438H346.5V112.438H345.504V113.438Z" fill="#FF529B"/>
<path d="M313 43.9385L313 43.4385L312 43.4385L312 43.9385L313 43.9385ZM312 163.438L312 163.938L313 163.938L313 163.438L312 163.438ZM312 44.9343L312 45.4343L313 45.4343L313 44.9343L312 44.9343ZM313 48.9176L313 48.4176L312 48.4176L312 48.9176L313 48.9176ZM312 50.9093L312 51.4093L313 51.4093L313 50.9093L312 50.9093ZM313 54.8926L313 54.3926L312 54.3926L312 54.8926L313 54.8926ZM312 56.8843L312 57.3843L313 57.3843L313 56.8843L312 56.8843ZM313 60.8676L313 60.3676L312 60.3676L312 60.8676L313 60.8676ZM312 62.8593L312 63.3593L313 63.3593L313 62.8593L312 62.8593ZM313 66.8426L313 66.3426L312 66.3426L312 66.8426L313 66.8426ZM312 68.8343L312 69.3343L313 69.3343L313 68.8343L312 68.8343ZM313 72.8176L313 72.3176L312 72.3176L312 72.8176L313 72.8176ZM312 74.8093L312 75.3093L313 75.3093L313 74.8093L312 74.8093ZM313 78.7926L313 78.2926L312 78.2926L312 78.7926L313 78.7926ZM312 80.7843L312 81.2843L313 81.2843L313 80.7843L312 80.7843ZM313 84.7676L313 84.2676L312 84.2676L312 84.7676L313 84.7676ZM312 86.7593L312 87.2593L313 87.2593L313 86.7593L312 86.7593ZM313 90.7426L313 90.2426L312 90.2426L312 90.7426L313 90.7426ZM312 92.7343L312 93.2343L313 93.2343L313 92.7343L312 92.7343ZM313 96.7176L313 96.2176L312 96.2176L312 96.7176L313 96.7176ZM312 98.7093L312 99.2093L313 99.2093L313 98.7093L312 98.7093ZM313 102.693L313 102.193L312 102.193L312 102.693L313 102.693ZM312 104.684L312 105.184L313 105.184L313 104.684L312 104.684ZM313 108.668L313 108.168L312 108.168L312 108.668L313 108.668ZM312 110.659L312 111.159L313 111.159L313 110.659L312 110.659ZM313 114.643L313 114.143L312 114.143L312 114.643L313 114.643ZM312 116.634L312 117.134L313 117.134L313 116.634L312 116.634ZM313 120.618L313 120.118L312 120.118L312 120.618L313 120.618ZM312 122.609L312 123.109L313 123.109L313 122.609L312 122.609ZM313 126.593L313 126.093L312 126.093L312 126.593L313 126.593ZM312 128.584L312 129.084L313 129.084L313 128.584L312 128.584ZM313 132.568L313 132.068L312 132.068L312 132.568L313 132.568ZM312 134.559L312 135.059L313 135.059L313 134.559L312 134.559ZM313 138.543L313 138.043L312 138.043L312 138.543L313 138.543ZM312 140.534L312 141.034L313 141.034L313 140.534L312 140.534ZM313 144.518L313 144.018L312 144.018L312 144.518L313 144.518ZM312 146.509L312 147.009L313 147.009L313 146.509L312 146.509ZM313 150.493L313 149.993L312 149.993L312 150.493L313 150.493ZM312 152.484L312 152.984L313 152.984L313 152.484L312 152.484ZM313 156.468L313 155.968L312 155.968L312 156.468L313 156.468ZM312 158.459L312 158.959L313 158.959L313 158.459L312 158.459ZM313 162.443L313 161.943L312 161.943L312 162.443L313 162.443ZM312 43.9385L312 44.9343L313 44.9343L313 43.9385L312 43.9385ZM312 48.9176L312 50.9093L313 50.9093L313 48.9176L312 48.9176ZM312 54.8926L312 56.8843L313 56.8843L313 54.8926L312 54.8926ZM312 60.8676L312 62.8593L313 62.8593L313 60.8676L312 60.8676ZM312 66.8426L312 68.8343L313 68.8343L313 66.8426L312 66.8426ZM312 72.8176L312 74.8093L313 74.8093L313 72.8176L312 72.8176ZM312 78.7926L312 80.7843L313 80.7843L313 78.7926L312 78.7926ZM312 84.7676L312 86.7593L313 86.7593L313 84.7676L312 84.7676ZM312 90.7426L312 92.7343L313 92.7343L313 90.7426L312 90.7426ZM312 96.7176L312 98.7093L313 98.7093L313 96.7176L312 96.7176ZM312 102.693L312 104.684L313 104.684L313 102.693L312 102.693ZM312 108.668L312 110.659L313 110.659L313 108.668L312 108.668ZM312 114.643L312 116.634L313 116.634L313 114.643L312 114.643ZM312 120.618L312 122.609L313 122.609L313 120.618L312 120.618ZM312 126.593L312 128.584L313 128.584L313 126.593L312 126.593ZM312 132.568L312 134.559L313 134.559L313 132.568L312 132.568ZM312 138.543L312 140.534L313 140.534L313 138.543L312 138.543ZM312 144.518L312 146.509L313 146.509L313 144.518L312 144.518ZM312 150.493L312 152.484L313 152.484L313 150.493L312 150.493ZM312 156.468L312 158.459L313 158.459L313 156.468L312 156.468ZM312 162.443L312 163.438L313 163.438L313 162.443L312 162.443Z" fill="#FF529B"/>
<path d="M294.5 43.9385L294.5 43.4385L293.5 43.4385L293.5 43.9385L294.5 43.9385ZM293.5 163.438L293.5 163.938L294.5 163.938L294.5 163.438L293.5 163.438ZM293.5 44.9343L293.5 45.4343L294.5 45.4343L294.5 44.9343L293.5 44.9343ZM294.5 48.9176L294.5 48.4176L293.5 48.4176L293.5 48.9176L294.5 48.9176ZM293.5 50.9093L293.5 51.4093L294.5 51.4093L294.5 50.9093L293.5 50.9093ZM294.5 54.8926L294.5 54.3926L293.5 54.3926L293.5 54.8926L294.5 54.8926ZM293.5 56.8843L293.5 57.3843L294.5 57.3843L294.5 56.8843L293.5 56.8843ZM294.5 60.8676L294.5 60.3676L293.5 60.3676L293.5 60.8676L294.5 60.8676ZM293.5 62.8593L293.5 63.3593L294.5 63.3593L294.5 62.8593L293.5 62.8593ZM294.5 66.8426L294.5 66.3426L293.5 66.3426L293.5 66.8426L294.5 66.8426ZM293.5 68.8343L293.5 69.3343L294.5 69.3343L294.5 68.8343L293.5 68.8343ZM294.5 72.8176L294.5 72.3176L293.5 72.3176L293.5 72.8176L294.5 72.8176ZM293.5 74.8093L293.5 75.3093L294.5 75.3093L294.5 74.8093L293.5 74.8093ZM294.5 78.7926L294.5 78.2926L293.5 78.2926L293.5 78.7926L294.5 78.7926ZM293.5 80.7843L293.5 81.2843L294.5 81.2843L294.5 80.7843L293.5 80.7843ZM294.5 84.7676L294.5 84.2676L293.5 84.2676L293.5 84.7676L294.5 84.7676ZM293.5 86.7593L293.5 87.2593L294.5 87.2593L294.5 86.7593L293.5 86.7593ZM294.5 90.7426L294.5 90.2426L293.5 90.2426L293.5 90.7426L294.5 90.7426ZM293.5 92.7343L293.5 93.2343L294.5 93.2343L294.5 92.7343L293.5 92.7343ZM294.5 96.7176L294.5 96.2176L293.5 96.2176L293.5 96.7176L294.5 96.7176ZM293.5 98.7093L293.5 99.2093L294.5 99.2093L294.5 98.7093L293.5 98.7093ZM294.5 102.693L294.5 102.193L293.5 102.193L293.5 102.693L294.5 102.693ZM293.5 104.684L293.5 105.184L294.5 105.184L294.5 104.684L293.5 104.684ZM294.5 108.668L294.5 108.168L293.5 108.168L293.5 108.668L294.5 108.668ZM293.5 110.659L293.5 111.159L294.5 111.159L294.5 110.659L293.5 110.659ZM294.5 114.643L294.5 114.143L293.5 114.143L293.5 114.643L294.5 114.643ZM293.5 116.634L293.5 117.134L294.5 117.134L294.5 116.634L293.5 116.634ZM294.5 120.618L294.5 120.118L293.5 120.118L293.5 120.618L294.5 120.618ZM293.5 122.609L293.5 123.109L294.5 123.109L294.5 122.609L293.5 122.609ZM294.5 126.593L294.5 126.093L293.5 126.093L293.5 126.593L294.5 126.593ZM293.5 128.584L293.5 129.084L294.5 129.084L294.5 128.584L293.5 128.584ZM294.5 132.568L294.5 132.068L293.5 132.068L293.5 132.568L294.5 132.568ZM293.5 134.559L293.5 135.059L294.5 135.059L294.5 134.559L293.5 134.559ZM294.5 138.543L294.5 138.043L293.5 138.043L293.5 138.543L294.5 138.543ZM293.5 140.534L293.5 141.034L294.5 141.034L294.5 140.534L293.5 140.534ZM294.5 144.518L294.5 144.018L293.5 144.018L293.5 144.518L294.5 144.518ZM293.5 146.509L293.5 147.009L294.5 147.009L294.5 146.509L293.5 146.509ZM294.5 150.493L294.5 149.993L293.5 149.993L293.5 150.493L294.5 150.493ZM293.5 152.484L293.5 152.984L294.5 152.984L294.5 152.484L293.5 152.484ZM294.5 156.468L294.5 155.968L293.5 155.968L293.5 156.468L294.5 156.468ZM293.5 158.459L293.5 158.959L294.5 158.959L294.5 158.459L293.5 158.459ZM294.5 162.443L294.5 161.943L293.5 161.943L293.5 162.443L294.5 162.443ZM293.5 43.9385L293.5 44.9343L294.5 44.9343L294.5 43.9385L293.5 43.9385ZM293.5 48.9176L293.5 50.9093L294.5 50.9093L294.5 48.9176L293.5 48.9176ZM293.5 54.8926L293.5 56.8843L294.5 56.8843L294.5 54.8926L293.5 54.8926ZM293.5 60.8676L293.5 62.8593L294.5 62.8593L294.5 60.8676L293.5 60.8676ZM293.5 66.8426L293.5 68.8343L294.5 68.8343L294.5 66.8426L293.5 66.8426ZM293.5 72.8176L293.5 74.8093L294.5 74.8093L294.5 72.8176L293.5 72.8176ZM293.5 78.7926L293.5 80.7843L294.5 80.7843L294.5 78.7926L293.5 78.7926ZM293.5 84.7676L293.5 86.7593L294.5 86.7593L294.5 84.7676L293.5 84.7676ZM293.5 90.7426L293.5 92.7343L294.5 92.7343L294.5 90.7426L293.5 90.7426ZM293.5 96.7176L293.5 98.7093L294.5 98.7093L294.5 96.7176L293.5 96.7176ZM293.5 102.693L293.5 104.684L294.5 104.684L294.5 102.693L293.5 102.693ZM293.5 108.668L293.5 110.659L294.5 110.659L294.5 108.668L293.5 108.668ZM293.5 114.643L293.5 116.634L294.5 116.634L294.5 114.643L293.5 114.643ZM293.5 120.618L293.5 122.609L294.5 122.609L294.5 120.618L293.5 120.618ZM293.5 126.593L293.5 128.584L294.5 128.584L294.5 126.593L293.5 126.593ZM293.5 132.568L293.5 134.559L294.5 134.559L294.5 132.568L293.5 132.568ZM293.5 138.543L293.5 140.534L294.5 140.534L294.5 138.543L293.5 138.543ZM293.5 144.518L293.5 146.509L294.5 146.509L294.5 144.518L293.5 144.518ZM293.5 150.493L293.5 152.484L294.5 152.484L294.5 150.493L293.5 150.493ZM293.5 156.468L293.5 158.459L294.5 158.459L294.5 156.468L293.5 156.468ZM293.5 162.443L293.5 163.438L294.5 163.438L294.5 162.443L293.5 162.443Z" fill="#FF529B"/>
<path d="M279.5 15.9385L279.5 15.4385L278.5 15.4385L278.5 15.9385L279.5 15.9385ZM278.5 135.438L278.5 135.938L279.5 135.938L279.5 135.438L278.5 135.438ZM278.5 16.9343L278.5 17.4343L279.5 17.4343L279.5 16.9343L278.5 16.9343ZM279.5 20.9176L279.5 20.4176L278.5 20.4176L278.5 20.9176L279.5 20.9176ZM278.5 22.9093L278.5 23.4093L279.5 23.4093L279.5 22.9093L278.5 22.9093ZM279.5 26.8926L279.5 26.3926L278.5 26.3926L278.5 26.8926L279.5 26.8926ZM278.5 28.8843L278.5 29.3843L279.5 29.3843L279.5 28.8843L278.5 28.8843ZM279.5 32.8676L279.5 32.3676L278.5 32.3676L278.5 32.8676L279.5 32.8676ZM278.5 34.8593L278.5 35.3593L279.5 35.3593L279.5 34.8593L278.5 34.8593ZM279.5 38.8426L279.5 38.3426L278.5 38.3426L278.5 38.8426L279.5 38.8426ZM278.5 40.8343L278.5 41.3343L279.5 41.3343L279.5 40.8343L278.5 40.8343ZM279.5 44.8176L279.5 44.3176L278.5 44.3176L278.5 44.8176L279.5 44.8176ZM278.5 46.8093L278.5 47.3093L279.5 47.3093L279.5 46.8093L278.5 46.8093ZM279.5 50.7926L279.5 50.2926L278.5 50.2926L278.5 50.7926L279.5 50.7926ZM278.5 52.7843L278.5 53.2843L279.5 53.2843L279.5 52.7843L278.5 52.7843ZM279.5 56.7676L279.5 56.2676L278.5 56.2676L278.5 56.7676L279.5 56.7676ZM278.5 58.7593L278.5 59.2593L279.5 59.2593L279.5 58.7593L278.5 58.7593ZM279.5 62.7426L279.5 62.2426L278.5 62.2426L278.5 62.7426L279.5 62.7426ZM278.5 64.7343L278.5 65.2343L279.5 65.2343L279.5 64.7343L278.5 64.7343ZM279.5 68.7176L279.5 68.2176L278.5 68.2176L278.5 68.7176L279.5 68.7176ZM278.5 70.7093L278.5 71.2093L279.5 71.2093L279.5 70.7093L278.5 70.7093ZM279.5 74.6926L279.5 74.1926L278.5 74.1926L278.5 74.6926L279.5 74.6926ZM278.5 76.6843L278.5 77.1843L279.5 77.1843L279.5 76.6843L278.5 76.6843ZM279.5 80.6676L279.5 80.1676L278.5 80.1676L278.5 80.6676L279.5 80.6676ZM278.5 82.6593L278.5 83.1593L279.5 83.1593L279.5 82.6593L278.5 82.6593ZM279.5 86.6426L279.5 86.1426L278.5 86.1426L278.5 86.6426L279.5 86.6426ZM278.5 88.6343L278.5 89.1343L279.5 89.1343L279.5 88.6343L278.5 88.6343ZM279.5 92.6176L279.5 92.1176L278.5 92.1176L278.5 92.6176L279.5 92.6176ZM278.5 94.6093L278.5 95.1093L279.5 95.1093L279.5 94.6093L278.5 94.6093ZM279.5 98.5926L279.5 98.0926L278.5 98.0926L278.5 98.5926L279.5 98.5926ZM278.5 100.584L278.5 101.084L279.5 101.084L279.5 100.584L278.5 100.584ZM279.5 104.568L279.5 104.068L278.5 104.068L278.5 104.568L279.5 104.568ZM278.5 106.559L278.5 107.059L279.5 107.059L279.5 106.559L278.5 106.559ZM279.5 110.543L279.5 110.043L278.5 110.043L278.5 110.543L279.5 110.543ZM278.5 112.534L278.5 113.034L279.5 113.034L279.5 112.534L278.5 112.534ZM279.5 116.518L279.5 116.018L278.5 116.018L278.5 116.518L279.5 116.518ZM278.5 118.509L278.5 119.009L279.5 119.009L279.5 118.509L278.5 118.509ZM279.5 122.493L279.5 121.993L278.5 121.993L278.5 122.493L279.5 122.493ZM278.5 124.484L278.5 124.984L279.5 124.984L279.5 124.484L278.5 124.484ZM279.5 128.468L279.5 127.968L278.5 127.968L278.5 128.468L279.5 128.468ZM278.5 130.459L278.5 130.959L279.5 130.959L279.5 130.459L278.5 130.459ZM279.5 134.443L279.5 133.943L278.5 133.943L278.5 134.443L279.5 134.443ZM278.5 15.9385L278.5 16.9343L279.5 16.9343L279.5 15.9385L278.5 15.9385ZM278.5 20.9176L278.5 22.9093L279.5 22.9093L279.5 20.9176L278.5 20.9176ZM278.5 26.8926L278.5 28.8843L279.5 28.8843L279.5 26.8926L278.5 26.8926ZM278.5 32.8676L278.5 34.8593L279.5 34.8593L279.5 32.8676L278.5 32.8676ZM278.5 38.8426L278.5 40.8343L279.5 40.8343L279.5 38.8426L278.5 38.8426ZM278.5 44.8176L278.5 46.8093L279.5 46.8093L279.5 44.8176L278.5 44.8176ZM278.5 50.7926L278.5 52.7843L279.5 52.7843L279.5 50.7926L278.5 50.7926ZM278.5 56.7676L278.5 58.7593L279.5 58.7593L279.5 56.7676L278.5 56.7676ZM278.5 62.7426L278.5 64.7343L279.5 64.7343L279.5 62.7426L278.5 62.7426ZM278.5 68.7176L278.5 70.7093L279.5 70.7093L279.5 68.7176L278.5 68.7176ZM278.5 74.6926L278.5 76.6843L279.5 76.6843L279.5 74.6926L278.5 74.6926ZM278.5 80.6676L278.5 82.6593L279.5 82.6593L279.5 80.6676L278.5 80.6676ZM278.5 86.6426L278.5 88.6343L279.5 88.6343L279.5 86.6426L278.5 86.6426ZM278.5 92.6176L278.5 94.6093L279.5 94.6093L279.5 92.6176L278.5 92.6176ZM278.5 98.5926L278.5 100.584L279.5 100.584L279.5 98.5926L278.5 98.5926ZM278.5 104.568L278.5 106.559L279.5 106.559L279.5 104.568L278.5 104.568ZM278.5 110.543L278.5 112.534L279.5 112.534L279.5 110.543L278.5 110.543ZM278.5 116.518L278.5 118.509L279.5 118.509L279.5 116.518L278.5 116.518ZM278.5 122.493L278.5 124.484L279.5 124.484L279.5 122.493L278.5 122.493ZM278.5 128.468L278.5 130.459L279.5 130.459L279.5 128.468L278.5 128.468ZM278.5 134.443L278.5 135.438L279.5 135.438L279.5 134.443L278.5 134.443Z" fill="#FF529B"/>
<path d="M267.297 180.865L318.625 12.9385" stroke="#FF529B" stroke-linecap="square" stroke-dasharray="2 4"/>
<circle opacity="0.6" cx="283" cy="87.9385" r="36" fill="#27AE60"/>
<circle opacity="0.6" cx="303" cy="103.938" r="9" fill="#27AE60"/>
<circle opacity="0.6" cx="283" cy="114.938" r="36" fill="#27AE60"/>
<circle opacity="0.6" cx="250.5" cy="100.438" r="11.5" fill="#27AE60"/>
<path d="M187.645 191.949L136.316 24.0218" stroke="#FF529B" stroke-linecap="square" stroke-dasharray="2 4"/>
<path d="M208.973 201.719L147.621 1" stroke="#FF529B" stroke-linecap="square" stroke-dasharray="2 4"/>
<path d="M191 177.938L237 25.9385" stroke="#FF529B" stroke-linecap="square" stroke-dasharray="2 4"/>
<path d="M171.499 180.647L222.694 13.1557" stroke="#FF529B" stroke-linecap="square" stroke-dasharray="2 4"/>
<circle opacity="0.6" cx="186.5" cy="139.438" r="11.5" fill="#27AE60"/>
<circle opacity="0.6" cx="220" cy="51.9385" r="9" fill="#27AE60"/>
<circle opacity="0.6" cx="154" cy="51.9385" r="9" fill="#27AE60"/>
<path d="M158 136.938L22 78.9385" stroke="#FF529B" stroke-linecap="square" stroke-dasharray="2 4"/>
<path d="M151 110.938L50 67.9385" stroke="#FF529B" stroke-linecap="square" stroke-dasharray="2 4"/>
<path d="M88.2965 180.865L139.625 12.9385" stroke="#FF529B" stroke-linecap="square" stroke-dasharray="2 4"/>
<path d="M55.2965 180.865L106.625 12.9385" stroke="#FF529B" stroke-linecap="square" stroke-dasharray="2 4"/>
<circle opacity="0.6" cx="91" cy="79.9385" r="26" fill="#27AE60"/>
<circle opacity="0.6" cx="123" cy="68.9385" r="9" fill="#27AE60"/>
<circle opacity="0.6" cx="99" cy="60.9385" r="9" fill="#27AE60"/>
<circle opacity="0.6" cx="98" cy="140.938" r="9" fill="#27AE60"/>
<circle opacity="0.6" cx="94" cy="78.9385" r="8" fill="#27AE60"/>
<circle opacity="0.6" cx="104" cy="122.938" r="8" fill="#27AE60"/>
<circle opacity="0.6" cx="69" cy="131.938" r="9" fill="#27AE60"/>
<circle opacity="0.6" cx="107" cy="120.938" r="26" fill="#27AE60"/>
<circle opacity="0.6" cx="99.5" cy="100.438" r="11.5" fill="#27AE60"/>
</svg>
